<?xml version="1.0" encoding="UTF-8"?>
<svg width="40px" height="40px" viewBox="0 0 40 40" version="1.1" xmlns="http://www.w3.org/2000/svg" xmlns:xlink="http://www.w3.org/1999/xlink">
    <!-- Generator: Sketch 52.6 (67491) - http://www.bohemiancoding.com/sketch -->
    <title>Group 6</title>
    <desc>Created with Sketch.</desc>
    <g id="Page-1" stroke="none" stroke-width="1" fill="none" fill-rule="evenodd">
        <g id="首页" transform="translate(-122.000000, -132.000000)">
            <g id="Group-6" transform="translate(122.000000, 132.000000)">
                <rect id="Rectangle-Copy-3" fill="#07BFB9" x="0" y="0" width="40" height="40" rx="20"></rect>
                <g id="Group-4" transform="translate(11.000000, 10.000000)" fill="#FFFFFF">
                    <path d="M1.3103098,18.5496957 L9.4972067,18.5496957 C9.71051295,19.0060852 9.9746064,19.4523327 10.289487,19.8478702 L0.660233621,19.8478702 C0.294565769,19.8478702 -1.43518175e-14,19.5638945 -1.42108547e-14,19.198783 L-1.42108547e-14,17.4340771 C-1.42108547e-14,13.9046653 2.15337735,10.7707911 5.47486034,9.45233266 L5.85068563,9.30020284 L5.52564754,9.04665314 C4.27628238,8.0831643 3.56526155,6.63286004 3.56526155,5.07099391 C3.56526155,2.27180527 5.86084307,-7.10542736e-15 8.67445404,-7.10542736e-15 C11.488065,-7.10542736e-15 13.7836465,2.27180527 13.7836465,5.07099391 C13.7836465,6.62271805 13.0726257,8.07302231 11.8232605,9.04665314 L11.4982224,9.30020284 C10.8481463,9.88843813 9.59878111,10.0811359 8.77602844,10.1419878 L8.67445404,10.1419878 C8.45099035,10.1419878 8.20721178,10.1521298 7.9837481,10.1724138 L7.97359066,10.1724138 C4.23565262,10.5273834 1.3103098,13.6409736 1.3103098,17.4340771 L1.3103098,18.5496957 Z M5,5.1126775 C5,7.20913629 6.67390637,8.91507824 8.738725,8.925355 C10.7935202,8.925355 12.47745,7.21941305 12.47745,5.1126775 C12.47745,3.01621871 10.7935202,1.3 8.738725,1.3 C6.68392976,1.3 5,3.00594195 5,5.1126775 Z" id="Combined-Shape" fill-rule="nonzero"></path>
                    <rect id="Rectangle" x="11" y="11" width="7" height="1.5" rx="0.75"></rect>
                    <rect id="Rectangle-Copy-4" x="11" y="13.5" width="7" height="1.5" rx="0.75"></rect>
                    <rect id="Rectangle-Copy-5" x="11" y="16" width="7" height="1.5" rx="0.75"></rect>
                    <rect id="Rectangle-Copy-6" x="11" y="18.5" width="9" height="1.5" rx="0.75"></rect>
                </g>
            </g>
        </g>
    </g>
</svg>