<?xml version="1.0" encoding="UTF-8"?>
<svg width="40px" height="40px" viewBox="0 0 40 40" version="1.1" xmlns="http://www.w3.org/2000/svg" xmlns:xlink="http://www.w3.org/1999/xlink">
    <!-- Generator: Sketch 52.6 (67491) - http://www.bohemiancoding.com/sketch -->
    <title>Group 3</title>
    <desc>Created with Sketch.</desc>
    <g id="Page-1" stroke="none" stroke-width="1" fill="none" fill-rule="evenodd">
        <g id="首页" transform="translate(-213.000000, -132.000000)">
            <g id="Group-3" transform="translate(213.000000, 132.000000)">
                <rect id="Rectangle-Copy-2" fill="#D90808" x="0" y="0" width="40" height="40" rx="20"></rect>
                <g id="数据统计" transform="translate(11.000000, 10.000000)" fill="#FFFFFF" fill-rule="nonzero">
                    <path d="M19.0427968,9.3339964 L10.5521619,9.32110576 L10.5650525,0.85195528 L11.2160298,0.85195528 C12.2730623,0.85195528 13.2978682,1.05820552 14.2625178,1.46640912 C15.1949407,1.85957364 16.0306839,2.42461336 16.7504113,3.14434076 C17.4679902,3.86191972 18.03303,4.69981132 18.4283429,5.63223428 C18.8365465,6.59688384 19.0427968,7.62168972 19.0427968,8.6787222 L19.0427968,9.3339964 Z M11.8605618,8.01700268 L17.7064671,8.02559644 C17.3992402,4.9511788 14.9435732,2.49766032 11.8691556,2.1904334 L11.8605618,8.01700268 Z M8.93438656,19.1480703 C7.83223684,19.1480703 6.76231372,18.9310779 5.7568438,18.5056868 C4.78360048,18.0953347 3.91133384,17.5066622 3.16152828,16.7568566 C2.41172272,16.007051 1.82305016,15.1347844 1.41269812,14.1615411 C0.98515856,13.1539227 0.77031456,12.0839996 0.77031456,10.9818499 C0.77031456,9.87970016 0.987307,8.80977704 1.41269812,7.80430712 C1.82305016,6.8310638 2.41172272,5.95879716 3.16152828,5.2089916 C3.91133384,4.45918604 4.78360048,3.87051348 5.7568438,3.46016144 C6.76446216,3.03477032 7.83223684,2.81777788 8.93438656,2.81777788 L9.58751232,2.81777788 L9.58751232,10.3287241 L17.0984586,10.3287241 L17.0984586,10.9818499 C17.0984586,12.0839996 16.8814661,13.1539227 16.456075,14.1593926 C16.045723,15.132636 15.4570504,16.0049026 14.7072448,16.7547082 C13.9574393,17.5045137 13.0851726,18.0931863 12.1119293,18.5035383 C11.1064594,18.9310779 10.0365363,19.1480703 8.93438656,19.1480703 Z M8.2812608,4.15410756 C4.80508488,4.48496732 2.07441764,7.41973636 2.07441764,10.9818499 C2.07441764,14.7631043 5.15098372,17.8418188 8.93438656,17.8418188 C12.4965001,17.8418188 15.4334176,15.1133 15.7621289,11.6349756 L8.2812608,11.6349756 L8.2812608,4.15410756 Z" id="Shape"></path>
                </g>
            </g>
        </g>
    </g>
</svg>