<?xml version="1.0" encoding="UTF-8"?>
<svg width="40px" height="40px" viewBox="0 0 40 40" version="1.1" xmlns="http://www.w3.org/2000/svg" xmlns:xlink="http://www.w3.org/1999/xlink">
    <!-- Generator: Sketch 52.6 (67491) - http://www.bohemiancoding.com/sketch -->
    <title>Group 7</title>
    <desc>Created with Sketch.</desc>
    <g id="Page-1" stroke="none" stroke-width="1" fill="none" fill-rule="evenodd">
        <g id="首页" transform="translate(-303.000000, -132.000000)">
            <g id="Group-7" transform="translate(303.000000, 132.000000)">
                <rect id="Rectangle" fill="#367AF8" x="0" y="0" width="40" height="40" rx="20"></rect>
                <g id="用户管理" transform="translate(11.000000, 10.000000)" fill="#FFFFFF" fill-rule="nonzero">
                    <path d="M14.6775013,13.0121704 C13.5906552,13.0121704 12.7069578,13.8945233 12.7069578,14.979716 C12.7069578,16.0649087 13.5906552,16.9472617 14.6775013,16.9472617 C15.7643474,16.9472617 16.6480447,16.0649087 16.6480447,14.979716 C16.6480447,13.8945233 15.7643474,13.0121704 14.6775013,13.0121704 Z M14.6775013,15.9330629 C14.1493144,15.9330629 13.7227019,15.5070994 13.7227019,14.979716 C13.7227019,14.4523327 14.1594718,14.0263692 14.6775013,14.0263692 C15.2056882,14.0263692 15.6323007,14.4523327 15.6323007,14.979716 C15.6424581,15.5070994 15.2056882,15.9330629 14.6775013,15.9330629 Z M19.8984256,13.9553753 C19.8273235,13.5598377 19.5733875,13.31643 19.2585069,13.31643 L19.2077197,13.31643 C18.5982732,13.31643 18.0904012,12.8194726 18.0904012,12.2008114 C18.0904012,12.0385396 18.1615033,11.8356998 18.1818182,11.7748479 C18.3341798,11.4300203 18.2122905,11.0141988 17.877095,10.7809331 L16.5769426,10.0608519 C16.4753682,10.010142 16.3636364,10 16.2519045,10 C16.0182834,10 15.7846623,10.0912779 15.6221432,10.2535497 C15.4596242,10.4158215 15.0228542,10.7606491 14.7282885,10.7606491 C14.4337227,10.7606491 13.9867953,10.4056795 13.8344337,10.2332657 C13.6820721,10.0709939 13.4382936,9.97971602 13.2046724,9.97971602 C13.0827831,9.97971602 12.9812087,10 12.8796343,10.040568 L12.8593195,10.0507099 L11.5185373,10.7809331 L11.488065,10.801217 C11.1833418,11.0141988 11.0614525,11.4401623 11.2138141,11.7748479 C11.2239716,11.7951318 11.3153885,12.0182556 11.3153885,12.2008114 C11.3153885,12.8093306 10.8176739,13.31643 10.1980701,13.31643 L10.1472829,13.31643 C9.83240223,13.31643 9.57846623,13.5699797 9.50736414,13.9553753 C9.4972067,14.0162272 9.3956323,14.5537525 9.3956323,14.989858 C9.3956323,15.4259635 9.4972067,15.9634888 9.50736414,16.0243408 C9.57846623,16.4198783 9.83240223,16.663286 10.1472829,16.663286 L10.1980701,16.663286 C10.8075165,16.663286 11.3153885,17.1602434 11.3153885,17.7789047 C11.3153885,17.9411765 11.2442864,18.1440162 11.2239716,18.2048682 C11.07161,18.5496957 11.1833418,18.9655172 11.5185373,19.198783 L12.7983748,19.9087221 C12.8999492,19.959432 13.0116811,19.979716 13.1234129,19.979716 C13.3671915,19.979716 13.6008126,19.8782961 13.7531742,19.7160243 C13.9055358,19.5436105 14.3626206,19.168357 14.6673438,19.168357 C14.972067,19.168357 15.4189944,19.5436105 15.5815135,19.7261663 C15.7338751,19.8985801 15.9776536,20 16.2214322,20 C16.3433215,20 16.4448959,19.979716 16.5769426,19.9188641 L17.877095,19.2089249 L17.9075673,19.188641 C18.2122905,18.9756592 18.3341798,18.5496957 18.1818182,18.2150101 C18.1716607,18.1947262 18.0802438,17.9716024 18.0802438,17.7890467 C18.0802438,17.1805274 18.5779584,16.673428 19.1975622,16.673428 L19.2483494,16.673428 C19.5632301,16.673428 19.8171661,16.4198783 19.8882682,16.0344828 C19.8882682,16.0243408 20,15.4563895 20,15 C20,14.5537525 19.8984256,14.0162272 19.8984256,13.9553753 Z M18.9233113,15.6693712 C17.8669375,15.811359 17.0746572,16.703854 17.0746572,17.7789047 C17.0746572,18.0324544 17.1356018,18.2657201 17.186389,18.4178499 L16.2519045,18.9350913 C16.1604876,18.8539554 16.0284408,18.7322515 15.8659218,18.6105477 C15.4494667,18.306288 15.0533266,18.1440162 14.6775013,18.1440162 C14.3118334,18.1440162 13.9055358,18.296146 13.4992382,18.6004057 C13.3367191,18.7221095 13.2046724,18.8438134 13.1132555,18.9249493 L12.2194007,18.4279919 C12.2701879,18.2758621 12.3311326,18.0324544 12.3311326,17.7890467 C12.3311326,16.7139959 11.5286948,15.811359 10.4824784,15.6795132 C10.4621635,15.5070994 10.4215338,15.2231237 10.4215338,15 C10.4215338,14.7768763 10.4621635,14.4929006 10.4824784,14.3204868 C11.5388522,14.178499 12.3311326,13.2860041 12.3311326,12.2109533 C12.3311326,11.9574037 12.2701879,11.7241379 12.2194007,11.5720081 L13.1843575,11.0446247 L13.1843569,11.0446242 C13.3086443,11.1546665 13.437414,11.2595551 13.5703396,11.3590258 C13.9766372,11.6531434 14.36262,11.7849893 14.7282878,11.7849893 C15.0939557,11.7849893 15.469781,11.6430015 15.886236,11.3590258 C16.0487551,11.2373219 16.1808018,11.1359021 16.2620613,11.0547662 L17.1863884,11.5618656 C17.1356012,11.7139954 17.0746565,11.9574031 17.0746565,12.2008108 C17.0746565,13.2758615 17.8770943,14.1784984 18.9233107,14.3103443 C18.9436256,14.4929 18.9842553,14.7768757 18.9842553,14.9898574 C18.9842553,15.2129812 18.953783,15.4969568 18.9233107,15.6693706 L18.9233113,15.6693712 Z M1.3103098,18.5496957 L1.3103098,17.4340771 C1.3103098,13.6409736 4.23565262,10.5273834 7.97359066,10.1724138 L7.9837481,10.1724138 C8.20721178,10.1521298 8.45099035,10.1419878 8.67445404,10.1419878 L8.77602844,10.1419878 C9.59878111,10.0811359 10.8481463,9.88843813 11.4982224,9.30020284 L11.8232605,9.04665314 C13.0726257,8.07302231 13.7836465,6.62271805 13.7836465,5.07099391 C13.7836465,2.27180527 11.488065,0 8.67445404,0 C5.86084307,0 3.56526155,2.27180527 3.56526155,5.07099391 C3.56526155,6.63286004 4.27628238,8.0831643 5.52564754,9.04665314 L5.85068563,9.30020284 L5.47486034,9.45233266 C2.15337735,10.7707911 0,13.9046653 0,17.4340771 L0,19.198783 C-1.40962802e-16,19.5638945 0.294565769,19.8478702 0.660233621,19.8478702 L10.289487,19.8478702 C9.9746064,19.4523327 9.71051295,19.0060852 9.4972067,18.5496957 L1.3103098,18.5496957 Z M4.87557136,5.0811359 C4.87557136,3.0020284 6.58202133,1.31845842 8.6642966,1.31845842 C10.7465719,1.31845842 12.4530218,3.01217039 12.4530218,5.0811359 C12.4530218,7.16024341 10.7465719,8.84381339 8.6642966,8.84381339 C6.57186389,8.8336714 4.87557136,7.15010142 4.87557136,5.0811359 Z" id="Shape"></path>
                </g>
            </g>
        </g>
    </g>
</svg>