<?xml version="1.0" encoding="UTF-8"?>
<svg width="27px" height="29px" viewBox="0 0 27 29" version="1.1" xmlns="http://www.w3.org/2000/svg" xmlns:xlink="http://www.w3.org/1999/xlink">
    <!-- Generator: Sketch 52.6 (67491) - http://www.bohemiancoding.com/sketch -->
    <title>icon/基本信息</title>
    <desc>Created with Sketch.</desc>
    <g id="Page-1" stroke="none" stroke-width="1" fill="none" fill-rule="evenodd">
        <g id="客户详情" transform="translate(-31.000000, -323.000000)" fill="#49A4F9">
            <g id="Group-4" transform="translate(16.000000, 323.000000)">
                <g id="icon/基本信息" transform="translate(15.000000, 0.000000)">
                    <path d="M4.5,2.67105263 C3.46446609,2.67105263 2.625,3.5252462 2.625,4.57894737 L2.625,24.4210526 C2.625,25.4747538 3.46446609,26.3289474 4.5,26.3289474 L22.5,26.3289474 C23.5355339,26.3289474 24.375,25.4747538 24.375,24.4210526 L24.375,4.57894737 C24.375,3.5252462 23.5355339,2.67105263 22.5,2.67105263 L4.5,2.67105263 Z M4.5,0.381578947 L22.5,0.381578947 C24.7781746,0.381578947 26.625,2.2608048 26.625,4.57894737 L26.625,24.4210526 C26.625,26.7391952 24.7781746,28.6184211 22.5,28.6184211 L4.5,28.6184211 C2.22182541,28.6184211 0.375,26.7391952 0.375,24.4210526 L0.375,4.57894737 C0.375,2.2608048 2.22182541,0.381578947 4.5,0.381578947 Z" id="Rectangle" fill-rule="nonzero"></path>
                    <path d="M11.25,9.53947368 C10.6286797,9.53947368 10.125,9.02695754 10.125,8.39473684 C10.125,7.76251614 10.6286797,7.25 11.25,7.25 L20.25,7.25 C20.8713203,7.25 21.375,7.76251614 21.375,8.39473684 C21.375,9.02695754 20.8713203,9.53947368 20.25,9.53947368 L11.25,9.53947368 Z" id="Line-4" fill-rule="nonzero"></path>
                    <path d="M11.25,15.6447368 C10.6286797,15.6447368 10.125,15.1322207 10.125,14.5 C10.125,13.8677793 10.6286797,13.3552632 11.25,13.3552632 L20.25,13.3552632 C20.8713203,13.3552632 21.375,13.8677793 21.375,14.5 C21.375,15.1322207 20.8713203,15.6447368 20.25,15.6447368 L11.25,15.6447368 Z" id="Line-4-Copy" fill-rule="nonzero"></path>
                    <path d="M11.25,21.75 C10.6286797,21.75 10.125,21.2374839 10.125,20.6052632 C10.125,19.9730425 10.6286797,19.4605263 11.25,19.4605263 L20.25,19.4605263 C20.8713203,19.4605263 21.375,19.9730425 21.375,20.6052632 C21.375,21.2374839 20.8713203,21.75 20.25,21.75 L11.25,21.75 Z" id="Line-4-Copy-2" fill-rule="nonzero"></path>
                    <path d="M5.325,13.4315789 C5.325,12.7993582 5.82867966,12.2868421 6.45,12.2868421 C7.07132034,12.2868421 7.575,12.7993582 7.575,13.4315789 L7.575,21.0631579 C7.575,21.6953786 7.07132034,22.2078947 6.45,22.2078947 C5.82867966,22.2078947 5.325,21.6953786 5.325,21.0631579 L5.325,13.4315789 Z" id="Line-5" fill-rule="nonzero"></path>
                    <ellipse id="Oval" cx="6.45" cy="8.39473684" rx="1.35" ry="1.37368421"></ellipse>
                </g>
            </g>
        </g>
    </g>
</svg>