<?xml version="1.0" encoding="UTF-8"?>
<svg width="27px" height="29px" viewBox="0 0 27 29" version="1.1" xmlns="http://www.w3.org/2000/svg" xmlns:xlink="http://www.w3.org/1999/xlink">
    <!-- Generator: Sketch 52.6 (67491) - http://www.bohemiancoding.com/sketch -->
    <title>icon/联系人</title>
    <desc>Created with Sketch.</desc>
    <g id="Page-1" stroke="none" stroke-width="1" fill="none" fill-rule="evenodd">
        <g id="客户详情" transform="translate(-31.000000, -402.000000)" fill="#49A4F9" fill-rule="nonzero">
            <g id="Group-3" transform="translate(23.000000, 402.000000)">
                <g id="icon/联系人" transform="translate(8.000000, 0.000000)">
                    <path d="M3.7500144,6.81287566 C3.7500144,7.44509636 3.24633474,7.9576125 2.6250144,7.9576125 C2.00369406,7.9576125 1.5000144,7.44509636 1.5000144,6.81287566 L1.5000144,4.57894737 C1.5000144,2.27672847 3.24608427,0.381578947 5.4375144,0.381578947 L22.3125144,0.381578947 C24.5039445,0.381578947 26.2500144,2.27672847 26.2500144,4.57894737 L26.2500144,24.4210526 C26.2500144,26.7232715 24.5039445,28.6184211 22.3125144,28.6184211 L5.4375144,28.6184211 C3.24608427,28.6184211 1.5000144,26.7232715 1.5000144,24.4210526 L1.5000144,22.6155243 C1.5000144,21.9833036 2.00369406,21.4707874 2.6250144,21.4707874 C3.24633474,21.4707874 3.7500144,21.9833036 3.7500144,22.6155243 L3.7500144,24.4210526 C3.7500144,25.4906775 4.52234281,26.3289474 5.4375144,26.3289474 L22.3125144,26.3289474 C23.227686,26.3289474 24.0000144,25.4906775 24.0000144,24.4210526 L24.0000144,4.57894737 C24.0000144,3.50932253 23.227686,2.67105263 22.3125144,2.67105263 L5.4375144,2.67105263 C4.52234281,2.67105263 3.7500144,3.50932253 3.7500144,4.57894737 L3.7500144,6.81287566 Z" id="Path"></path>
                    <path d="M1.5,11.0657895 C0.878679656,11.0657895 0.375,10.5532733 0.375,9.92105263 C0.375,9.28883193 0.878679656,8.77631579 1.5,8.77631579 L5.25,8.77631579 C5.87132034,8.77631579 6.375,9.28883193 6.375,9.92105263 C6.375,10.5532733 5.87132034,11.0657895 5.25,11.0657895 L1.5,11.0657895 Z" id="Line-6"></path>
                    <path d="M1.5,15.6447368 C0.878679656,15.6447368 0.375,15.1322207 0.375,14.5 C0.375,13.8677793 0.878679656,13.3552632 1.5,13.3552632 L5.25,13.3552632 C5.87132034,13.3552632 6.375,13.8677793 6.375,14.5 C6.375,15.1322207 5.87132034,15.6447368 5.25,15.6447368 L1.5,15.6447368 Z" id="Line-6-Copy"></path>
                    <path d="M1.5,20.2236842 C0.878679656,20.2236842 0.375,19.7111681 0.375,19.0789474 C0.375,18.4467267 0.878679656,17.9342105 1.5,17.9342105 L5.25,17.9342105 C5.87132034,17.9342105 6.375,18.4467267 6.375,19.0789474 C6.375,19.7111681 5.87132034,20.2236842 5.25,20.2236842 L1.5,20.2236842 Z" id="Line-6-Copy-2"></path>
                    <path d="M14.25,13.9657895 C12.0546681,13.9657895 10.275,12.1548991 10.275,9.92105263 C10.275,7.68720616 12.0546681,5.87631579 14.25,5.87631579 C16.4453319,5.87631579 18.225,7.68720616 18.225,9.92105263 C18.225,12.1548991 16.4453319,13.9657895 14.25,13.9657895 Z M14.25,11.9815789 C15.3683766,11.9815789 16.275,11.0590499 16.275,9.92105263 C16.275,8.78305537 15.3683766,7.86052632 14.25,7.86052632 C13.1316234,7.86052632 12.225,8.78305537 12.225,9.92105263 C12.225,11.0590499 13.1316234,11.9815789 14.25,11.9815789 Z" id="Oval"></path>
                    <path d="M18.75,19.3842105 L18.75,18.3157895 C18.75,17.7257168 18.279899,17.2473684 17.7,17.2473684 L11.25,17.2473684 C10.670101,17.2473684 10.2,17.7257168 10.2,18.3157895 L10.2,19.3842105 L18.75,19.3842105 Z M11.25,15.2631579 L17.7,15.2631579 C19.3568542,15.2631579 20.7,16.6298676 20.7,18.3157895 L20.7,20.6052632 C20.7,21.0267436 20.3642136,21.3684211 19.95,21.3684211 L9,21.3684211 C8.58578644,21.3684211 8.25,21.0267436 8.25,20.6052632 L8.25,18.3157895 C8.25,16.6298676 9.59314575,15.2631579 11.25,15.2631579 Z" id="Rectangle"></path>
                </g>
            </g>
        </g>
    </g>
</svg>