<?xml version="1.0" encoding="UTF-8"?>
<svg width="27px" height="29px" viewBox="0 0 27 29" version="1.1" xmlns="http://www.w3.org/2000/svg" xmlns:xlink="http://www.w3.org/1999/xlink">
    <!-- Generator: Sketch 52.6 (67491) - http://www.bohemiancoding.com/sketch -->
    <title>icon/财务信息</title>
    <desc>Created with Sketch.</desc>
    <g id="Page-1" stroke="none" stroke-width="1" fill="none" fill-rule="evenodd">
        <g id="客户详情" transform="translate(-222.000000, -323.000000)" fill="#49A4F9">
            <g id="Group-6" transform="translate(207.000000, 323.000000)">
                <g id="icon/财务信息" transform="translate(15.000000, 0.000000)">
                    <path d="M19.875,26.3289474 L19.875,28.6184211 L4.125,28.6184211 C2.01803769,28.6184211 0.375,26.7077206 0.375,24.4210526 L0.375,4.57894737 C0.375,2.29227942 2.01803769,0.381578947 4.125,0.381578947 L19.875,0.381578947 C21.9819623,0.381578947 23.625,2.29227942 23.625,4.57894737 L23.625,6.29095855 L21.375,6.29095855 L21.375,4.57894737 C21.375,3.49377158 20.6675326,2.67105263 19.875,2.67105263 L4.125,2.67105263 C3.33246737,2.67105263 2.625,3.49377158 2.625,4.57894737 L2.625,24.4210526 C2.625,25.5062284 3.33246737,26.3289474 4.125,26.3289474 L19.875,26.3289474 Z" id="Path" fill-rule="nonzero"></path>
                    <path d="M7.5,7.25 C6.87867966,7.25 6.375,6.73748386 6.375,6.10526316 C6.375,5.47304246 6.87867966,4.96052632 7.5,4.96052632 L22.9285714,4.96052632 C25.0118489,4.96052632 26.625,6.87555366 26.625,9.15789474 L26.625,24.4210526 C26.625,26.7033937 25.0118489,28.6184211 22.9285714,28.6184211 L7.5,28.6184211 C6.87867966,28.6184211 6.375,28.1059049 6.375,27.4736842 C6.375,26.8414635 6.87867966,26.3289474 7.5,26.3289474 L22.9285714,26.3289474 C23.6856155,26.3289474 24.375,25.5105553 24.375,24.4210526 L24.375,9.15789474 C24.375,8.06839207 23.6856155,7.25 22.9285714,7.25 L7.5,7.25 Z" id="Path" fill-rule="nonzero"></path>
                    <path d="M18.8437632,17.5521954 C19.4130139,17.5521954 19.8750144,17.0820896 19.8750144,16.5028521 C19.8750144,15.9236146 19.4130139,15.4535088 18.8437632,15.4535088 L14.7187584,15.4535088 L14.7187584,14.6832908 C15.0363838,14.567863 15.3395716,14.4041655 15.6159469,14.179606 L19.4872639,11.0273786 C19.9327645,10.6643059 20.0028895,10.0053182 19.6481391,9.55200193 C19.2954512,9.1007843 18.6478255,9.03152764 18.1981999,9.38830437 L14.3268829,12.538433 C13.9556325,12.8427426 13.4193819,12.8427426 13.0481315,12.538433 L9.17681445,9.38620568 C8.73337644,9.02733026 8.08368818,9.09868561 7.72687526,9.54990324 C7.37212485,10.0032196 7.44431244,10.6622072 7.88775045,11.02528 L11.7590675,14.1775073 C12.0354428,14.4041655 12.3386306,14.567863 12.656256,14.6832908 L12.656256,15.4535088 L8.5312512,15.4535088 C7.96200054,15.4535088 7.5,15.9236146 7.5,16.5028521 C7.5,17.0820896 7.96200054,17.5521954 8.5312512,17.5521954 L12.656256,17.5521954 L12.656256,19.6508821 L8.5312512,19.6508821 C7.96200054,19.6508821 7.5,20.1209879 7.5,20.7002254 C7.5,21.2794629 7.96200054,21.7495688 8.5312512,21.7495688 L12.656256,21.7495688 L12.656256,22.7989121 C12.656256,23.3781496 13.1182565,23.8482554 13.6875072,23.8482554 C14.2567579,23.8482554 14.7187584,23.3781496 14.7187584,22.7989121 L14.7187584,21.7495688 L18.8437632,21.7495688 C19.4130139,21.7495688 19.8750144,21.2794629 19.8750144,20.7002254 C19.8750144,20.1209879 19.4130139,19.6508821 18.8437632,19.6508821 L14.7187584,19.6508821 L14.7187584,17.5521954 L18.8437632,17.5521954 Z" id="Path"></path>
                </g>
            </g>
        </g>
    </g>
</svg>