<?xml version="1.0" encoding="UTF-8"?>
<svg width="27px" height="30px" viewBox="0 0 27 30" version="1.1" xmlns="http://www.w3.org/2000/svg" xmlns:xlink="http://www.w3.org/1999/xlink">
    <!-- Generator: Sketch 52.6 (67491) - http://www.bohemiancoding.com/sketch -->
    <title>icon/变更历史</title>
    <desc>Created with Sketch.</desc>
    <g id="Page-1" stroke="none" stroke-width="1" fill="none" fill-rule="evenodd">
        <g id="客户详情" transform="translate(-126.000000, -402.000000)" fill="#49A4F9" fill-rule="nonzero">
            <g id="Group-2" transform="translate(112.000000, 402.000000)">
                <g id="icon/变更历史" transform="translate(14.000000, 0.000000)">
                    <path d="M12.3495654,26.4586466 C12.9743723,26.4586466 13.4808785,26.9736875 13.4808785,27.6090226 C13.4808785,28.2443576 12.9743723,28.7593985 12.3495654,28.7593985 L4.03501684,28.7593985 C1.83128912,28.7593985 0.0754208754,26.8549133 0.0754208754,24.5413534 L0.0754208754,4.60150376 C0.0754208754,2.28794388 1.83128912,0.383458647 4.03501684,0.383458647 L21.0047138,0.383458647 C23.2084415,0.383458647 24.9643098,2.28794388 24.9643098,4.60150376 L24.9643098,14.5714286 C24.9643098,15.2067637 24.4578036,15.7218045 23.8329966,15.7218045 C23.2081896,15.7218045 22.7016835,15.2067637 22.7016835,14.5714286 L22.7016835,4.60150376 C22.7016835,3.52660983 21.925021,2.68421053 21.0047138,2.68421053 L4.03501684,2.68421053 C3.1147096,2.68421053 2.33804714,3.52660983 2.33804714,4.60150376 L2.33804714,24.5413534 C2.33804714,25.6162473 3.1147096,26.4586466 4.03501684,26.4586466 L12.3495654,26.4586466 Z" id="Path"></path>
                    <path d="M5.73198653,9.58646617 C5.10717954,9.58646617 4.6006734,9.07142531 4.6006734,8.43609023 C4.6006734,7.80075514 5.10717954,7.28571429 5.73198653,7.28571429 L19.0747637,7.28571429 C19.6995707,7.28571429 20.2060768,7.80075514 20.2060768,8.43609023 C20.2060768,9.07142531 19.6995707,9.58646617 19.0747637,9.58646617 L5.73198653,9.58646617 Z" id="Line-7"></path>
                    <path d="M5.73198653,15.7218045 C5.10717954,15.7218045 4.6006734,15.2067637 4.6006734,14.5714286 C4.6006734,13.9360935 5.10717954,13.4210526 5.73198653,13.4210526 L15.5367003,13.4210526 C16.1615073,13.4210526 16.6680135,13.9360935 16.6680135,14.5714286 C16.6680135,15.2067637 16.1615073,15.7218045 15.5367003,15.7218045 L5.73198653,15.7218045 Z" id="Line-7-Copy"></path>
                    <path d="M5.73198653,21.8571429 C5.10717954,21.8571429 4.6006734,21.342102 4.6006734,20.7067669 C4.6006734,20.0714318 5.10717954,19.556391 5.73198653,19.556391 L11.7656566,19.556391 C12.3904636,19.556391 12.8969697,20.0714318 12.8969697,20.7067669 C12.8969697,21.342102 12.3904636,21.8571429 11.7656566,21.8571429 L5.73198653,21.8571429 Z" id="Line-7-Copy-2"></path>
                    <g id="刷新" transform="translate(14.782492, 16.872180)">
                        <path d="M1.57102367,6.90162806 L0,6.9016183 L0,10.7358537 L1.11698414,9.69217648 C3.04937002,12.4529815 6.81707505,13.0983046 9.53238486,11.1335414 C10.9072708,10.1386917 11.8096388,8.60395128 12.0205847,6.9016183 L10.4963318,6.90161847 L10.4963318,6.9016183 C10.0791572,9.40749717 7.74302299,11.0950734 5.27843842,10.6709077 C4.03146174,10.4562991 2.92969019,9.72099905 2.24000123,8.64312626 L4.10365165,6.9016183 L1.57101545,6.9016183 L1.57102367,6.90162806 Z M6.03367597,1.70406489e-05 C2.99290438,6.95116122e-05 0.42718555,2.30051409 0.0467589815,5.36793597 L1.57101189,5.36793539 L1.57101179,5.36793597 C1.98745668,2.86192523 4.32309449,1.17365375 6.78780875,1.59707621 C8.08087237,1.81921656 9.21560865,2.60067806 9.89823542,3.73914647 L8.29629848,5.36792398 L12.0673401,5.36793597 L12.0673401,1.5336983 L10.9873127,2.63182158 C9.86042746,0.981742389 8.00942884,-0.00167610538 6.03366771,2.14454676e-06 L6.03367597,1.70406489e-05 Z" id="Shape"></path>
                    </g>
                </g>
            </g>
        </g>
    </g>
</svg>