<?xml version="1.0" encoding="UTF-8"?>
<svg width="27px" height="29px" viewBox="0 0 27 29" version="1.1" xmlns="http://www.w3.org/2000/svg" xmlns:xlink="http://www.w3.org/1999/xlink">
    <!-- Generator: Sketch 52.6 (67491) - http://www.bohemiancoding.com/sketch -->
    <title>icon/其它投入</title>
    <desc>Created with Sketch.</desc>
    <g id="Page-1" stroke="none" stroke-width="1" fill="none" fill-rule="evenodd">
        <g id="客户详情" transform="translate(-316.000000, -323.000000)" fill="#49A4F9" fill-rule="nonzero">
            <g id="Group-7" transform="translate(303.000000, 323.000000)">
                <g id="icon/其它投入" transform="translate(13.000000, 0.000000)">
                    <path d="M4.5,2.67105263 C3.46446609,2.67105263 2.625,3.5252462 2.625,4.57894737 L2.625,24.4210526 C2.625,25.4747538 3.46446609,26.3289474 4.5,26.3289474 L22.5,26.3289474 C23.5355339,26.3289474 24.375,25.4747538 24.375,24.4210526 L24.375,4.57894737 C24.375,3.5252462 23.5355339,2.67105263 22.5,2.67105263 L4.5,2.67105263 Z M4.5,0.381578947 L22.5,0.381578947 C24.7781746,0.381578947 26.625,2.2608048 26.625,4.57894737 L26.625,24.4210526 C26.625,26.7391952 24.7781746,28.6184211 22.5,28.6184211 L4.5,28.6184211 C2.22182541,28.6184211 0.375,26.7391952 0.375,24.4210526 L0.375,4.57894737 C0.375,2.2608048 2.22182541,0.381578947 4.5,0.381578947 Z" id="Rectangle-Copy-5"></path>
                    <path d="M16.05,11.0657895 C15.4286797,11.0657895 14.925,10.5532733 14.925,9.92105263 C14.925,9.28883193 15.4286797,8.77631579 16.05,8.77631579 L21.4958143,8.77631579 C22.1171347,8.77631579 22.6208143,9.28883193 22.6208143,9.92105263 C22.6208143,10.5532733 22.1171347,11.0657895 21.4958143,11.0657895 L16.05,11.0657895 Z" id="Line-6-Copy-3"></path>
                    <path d="M16.05,15.6447368 C15.4286797,15.6447368 14.925,15.1322207 14.925,14.5 C14.925,13.8677793 15.4286797,13.3552632 16.05,13.3552632 L21.4958143,13.3552632 C22.1171347,13.3552632 22.6208143,13.8677793 22.6208143,14.5 C22.6208143,15.1322207 22.1171347,15.6447368 21.4958143,15.6447368 L16.05,15.6447368 Z" id="Line-6-Copy-4"></path>
                    <path d="M16.05,20.2236842 C15.4286797,20.2236842 14.925,19.7111681 14.925,19.0789474 C14.925,18.4467267 15.4286797,17.9342105 16.05,17.9342105 L21.4958143,17.9342105 C22.1171347,17.9342105 22.6208143,18.4467267 22.6208143,19.0789474 C22.6208143,19.7111681 22.1171347,20.2236842 21.4958143,20.2236842 L16.05,20.2236842 Z" id="Line-6-Copy-5"></path>
                    <path d="M8.175,9.92105263 C8.175,9.28883193 8.67867966,8.77631579 9.3,8.77631579 C9.92132034,8.77631579 10.425,9.28883193 10.425,9.92105263 L10.425,19.0789474 C10.425,19.7111681 9.92132034,20.2236842 9.3,20.2236842 C8.67867966,20.2236842 8.175,19.7111681 8.175,19.0789474 L8.175,9.92105263 Z" id="Line-8"></path>
                    <path d="M5.50450487,16.835767 C5.06516504,16.3887194 5.06516504,15.6639122 5.50450487,15.2168646 C5.9438447,14.7698171 6.6561553,14.7698171 7.09549513,15.2168646 L10.0954951,18.2694962 C10.534835,18.7165437 10.534835,19.441351 10.0954951,19.8883986 C9.6561553,20.3354461 8.9438447,20.3354461 8.50450487,19.8883986 L5.50450487,16.835767 Z" id="Line-8-Copy"></path>
                    <path d="M8.50450487,16.835767 C8.06516504,16.3887194 8.06516504,15.6639122 8.50450487,15.2168646 C8.9438447,14.7698171 9.6561553,14.7698171 10.0954951,15.2168646 L13.0954951,18.2694962 C13.534835,18.7165437 13.534835,19.441351 13.0954951,19.8883986 C12.6561553,20.3354461 11.9438447,20.3354461 11.5045049,19.8883986 L8.50450487,16.835767 Z" id="Line-8-Copy-2" transform="translate(10.800000, 17.552632) scale(-1, 1) translate(-10.800000, -17.552632) "></path>
                </g>
            </g>
        </g>
    </g>
</svg>