<?xml version="1.0" encoding="UTF-8"?>
<svg width="32px" height="33px" viewBox="0 0 32 33" version="1.1" xmlns="http://www.w3.org/2000/svg" xmlns:xlink="http://www.w3.org/1999/xlink">
    <!-- Generator: Sketch 52.6 (67491) - http://www.bohemiancoding.com/sketch -->
    <title>icon/资质信息</title>
    <desc>Created with Sketch.</desc>
    <g id="Page-1" stroke="none" stroke-width="1" fill="none" fill-rule="evenodd">
        <g id="客户详情" transform="translate(-125.000000, -323.000000)">
            <g id="Group-5" transform="translate(112.000000, 323.000000)">
                <g id="icon/资质信息" transform="translate(13.000000, 0.000000)">
                    <path d="M16.4871554,23.3787156 L16.5122571,29.4510615 L18.6456471,27.3073968 L20.7860555,29.4580284 L20.7609983,23.3964674 L16.4871554,23.3787156 Z" id="Rectangle" stroke="#49A4F9" stroke-width="1.836" transform="translate(18.639316, 27.073963) rotate(-330.000000) translate(-18.639316, -27.073963) "></path>
                    <path d="M24.7685393,23.4182845 L24.793641,29.4906304 L26.927031,27.3469657 L29.0674393,29.4975973 L29.0423822,23.4360363 L24.7685393,23.4182845 Z" id="Rectangle-Copy-4" stroke="#49A4F9" stroke-width="1.836" transform="translate(26.920699, 27.113532) scale(-1, 1) rotate(-330.000000) translate(-26.920699, -27.113532) "></path>
                    <path d="M22.8571429,25.7692308 C19.70123,25.7692308 17.1428571,23.1862582 17.1428571,20 C17.1428571,16.8137418 19.70123,14.2307692 22.8571429,14.2307692 C26.0130557,14.2307692 28.5714286,16.8137418 28.5714286,20 C28.5714286,23.1862582 26.0130557,25.7692308 22.8571429,25.7692308 Z M22.8571429,23.4615385 C24.7506906,23.4615385 26.2857143,21.9117549 26.2857143,20 C26.2857143,18.0882451 24.7506906,16.5384615 22.8571429,16.5384615 C20.9635951,16.5384615 19.4285714,18.0882451 19.4285714,20 C19.4285714,21.9117549 20.9635951,23.4615385 22.8571429,23.4615385 Z" id="Oval" fill="#49A4F9" fill-rule="nonzero"></path>
                    <path d="M12.0372621,26.5384615 C12.6684447,26.5384615 13.1801192,27.0550561 13.1801192,27.6923077 C13.1801192,28.3295593 12.6684447,28.8461538 12.0372621,28.8461538 L4.57142857,28.8461538 C2.25709248,28.8461538 0.380952381,26.9519739 0.380952381,24.6153846 L0.380952381,4.61538462 C0.380952381,2.27879529 2.25709248,0.384615385 4.57142857,0.384615385 L22.8571429,0.384615385 C25.171479,0.384615385 27.047619,2.27879529 27.047619,4.61538462 L27.047619,12.1824798 C27.047619,12.8197314 26.5359445,13.336326 25.9047619,13.336326 C25.2735793,13.336326 24.7619048,12.8197314 24.7619048,12.1824798 L24.7619048,4.61538462 C24.7619048,3.55329856 23.9091138,2.69230769 22.8571429,2.69230769 L4.57142857,2.69230769 C3.51945762,2.69230769 2.66666667,3.55329856 2.66666667,4.61538462 L2.66666667,24.6153846 C2.66666667,25.6774707 3.51945762,26.5384615 4.57142857,26.5384615 L12.0372621,26.5384615 Z" id="Path" fill="#49A4F9" fill-rule="nonzero"></path>
                    <path d="M5.33333333,7.63078769 C4.70215076,7.63078769 4.19047619,7.11419317 4.19047619,6.47694154 C4.19047619,5.8396899 4.70215076,5.32309538 5.33333333,5.32309538 L21.4460941,5.32309538 C22.0772767,5.32309538 22.5889513,5.8396899 22.5889513,6.47694154 C22.5889513,7.11419317 22.0772767,7.63078769 21.4460941,7.63078769 L5.33333333,7.63078769 Z" id="Line-3" fill="#49A4F9" fill-rule="nonzero"></path>
                    <path d="M5.45590062,14.6153846 C4.9674202,14.6153846 4.57142857,14.0987901 4.57142857,13.4615385 C4.57142857,12.8242868 4.9674202,12.3076923 5.45590062,12.3076923 L17.2488613,12.3076923 C17.7373417,12.3076923 18.1333333,12.8242868 18.1333333,13.4615385 C18.1333333,14.0987901 17.7373417,14.6153846 17.2488613,14.6153846 L5.45590062,14.6153846 Z" id="Line-3-Copy" fill="#49A4F9" fill-rule="nonzero"></path>
                    <path d="M5.56190476,22.3076923 C5.01487987,22.3076923 4.57142857,21.7910978 4.57142857,21.1538462 C4.57142857,20.5165945 5.01487987,20 5.56190476,20 L13.4857143,20 C14.0327392,20 14.4761905,20.5165945 14.4761905,21.1538462 C14.4761905,21.7910978 14.0327392,22.3076923 13.4857143,22.3076923 L5.56190476,22.3076923 Z" id="Line-3-Copy-2" fill="#49A4F9" fill-rule="nonzero"></path>
                </g>
            </g>
        </g>
    </g>
</svg>