<?xml version="1.0" encoding="UTF-8"?>
<svg width="14px" height="14px" viewBox="0 0 14 14" version="1.1" xmlns="http://www.w3.org/2000/svg" xmlns:xlink="http://www.w3.org/1999/xlink">
    <!-- Generator: Sketch 53.1 (72631) - https://sketchapp.com -->
    <title>Group</title>
    <desc>Created with Sketch.</desc>
    <g id="Page-1" stroke="none" stroke-width="1" fill="none" fill-rule="evenodd">
        <g id="客户统计" transform="translate(-24.000000, -125.000000)" fill="#CBCBCB" fill-rule="nonzero">
            <g id="Group-3" transform="translate(16.000000, 116.000000)">
                <g id="日期" transform="translate(8.000000, 9.000000)">
                    <g id="Group">
                        <path d="M12.9963901,1.00362617 L10.9952628,1.00362617 L10.9952628,0.504875588 L10.9952628,0.504875588 C10.9952628,0.2294239 10.7719639,0.00612500754 10.4965122,0.00612500754 C10.4965122,0.00612500754 10.4965122,0.00612500754 10.4965122,0.00612500754 L10.4965122,0.00612500834 C10.2359848,-0.00879963794 10.0126859,0.190300418 9.99776165,0.450829237 C9.99673045,0.468830058 9.99673045,0.486875177 9.99776165,0.504876136 L9.99776165,1.00362672 L4.00225467,1.00362672 L4.00225467,0.504876136 L4.00225467,0.504876136 C4.00225467,0.229424448 3.77895578,0.00612555521 3.50350409,0.00612555521 C3.50350409,0.00612555521 3.50350409,0.00612555521 3.50350409,0.00612555521 L3.50350407,0.00612555428 C3.24294928,-0.00831428674 3.02002226,0.191201942 3.00558201,0.451756737 C3.00460145,0.469450078 3.00461702,0.487184708 3.00562865,0.504876271 L3.00562865,1.00362685 L1.00362632,1.00362685 L1.00362637,1.00362685 C0.451450139,1.00795209 0.00610880058,1.45681039 0.00612520685,2.00900302 L0.00612520685,12.9963908 L0.00612516463,12.9963854 C0.0104068317,13.545506 0.454500296,13.9896045 1.00362086,13.993892 L12.9963848,13.993892 L12.9963848,13.993892 C13.5455054,13.9896074 13.9896012,13.5455114 13.993886,12.9963909 L13.993886,2.00900308 C13.993886,1.45687743 13.5476355,1.00800191 12.9963848,1.00275191 L12.9963901,1.00362617 Z M12.9963901,12.4897645 L12.9963901,12.4897647 C13.0113146,12.7502922 12.8122134,12.973591 12.5516859,12.9885153 C12.5336851,12.9895465 12.51564,12.9895465 12.497639,12.9885153 L1.50237621,12.9885153 L1.50237622,12.9885153 C1.24184877,13.0034399 1.01854988,12.8043399 1.00362564,12.543811 C1.00259444,12.5258102 1.00259444,12.5077651 1.00362564,12.4897641 L1.00362564,4.75388013 L12.9972646,4.75388013 L12.9972646,12.4888891 L12.9963901,12.4897645 Z M12.9963901,3.74850436 L1.00362617,3.74850436 L1.00362617,2.50687792 L1.00362616,2.50687774 C0.988701648,2.24635029 1.18780293,2.0230514 1.44833039,2.00812716 C1.46633121,2.00709597 1.48437633,2.00709597 1.50237729,2.00812718 L3.00475403,2.00812718 L3.00475403,2.50687776 L3.00475403,2.50687784 C3.00475407,2.78232952 3.22805293,3.00562842 3.50350461,3.00562842 L3.50350461,3.00562842 C3.76403207,3.02055306 3.98733096,2.82145301 4.0022552,2.56092419 C4.00328639,2.54292337 4.00328639,2.52487825 4.00225519,2.50687729 L4.00225519,2.00812671 L9.99863717,2.00812671 L9.99863717,2.50687729 C9.99863717,2.78250261 10.2217624,3.00562787 10.4973878,3.00562787 L10.4973877,3.00562787 C10.7579425,3.02006771 10.9808695,2.82055148 10.9953098,2.55999669 C10.9962904,2.54230335 10.9962748,2.52456872 10.9952632,2.50687715 L10.9952632,2.00812657 L12.4897649,2.00812657 L12.4897649,2.00812657 C12.7502923,1.99320193 12.9735912,2.19230198 12.9885155,2.4528308 C12.9895467,2.47083162 12.9895467,2.48887674 12.9885155,2.5068777 L12.9972655,3.74850436 L12.9963901,3.74850436 Z" id="Shape"></path>
                        <path d="M2.74312819,6.47500753 L4.3863801,6.47500753 L4.3863801,7.68250894 L2.74312819,7.68250894 L2.74312819,6.47500753 L2.74312819,6.47500753 Z M6.20375722,6.47500753 L7.84875913,6.47500753 L7.84875913,7.68250894 L6.20375722,7.68250894 L6.20375722,6.47500753 L6.20375722,6.47500753 Z M9.67488626,6.47500753 L11.3181382,6.47500753 L11.3181382,7.68250894 L9.67488626,7.68250894 L9.67488626,6.47500753 L9.67488626,6.47500753 Z M2.74312819,9.01076049 L4.3863801,9.01076049 L4.3863801,10.2165119 L2.74312819,10.2165119 L2.74312819,9.01076049 Z M6.20375722,9.01076049 L7.84875913,9.01076049 L7.84875913,10.2165119 L6.20375722,10.2165119 L6.20375722,9.01076049 Z M9.67488626,9.01076049 L11.3181382,9.01076049 L11.3181382,10.2165119 L9.67488626,10.2165119 L9.67488626,9.01076049 Z" id="Shape"></path>
                    </g>
                </g>
            </g>
        </g>
    </g>
</svg>