<?xml version="1.0" encoding="UTF-8"?>
<svg width="112px" height="128px" viewBox="0 0 112 128" version="1.1" xmlns="http://www.w3.org/2000/svg" xmlns:xlink="http://www.w3.org/1999/xlink">
    <!-- Generator: Sketch 52.6 (67491) - http://www.bohemiancoding.com/sketch -->
    <title>Group 10</title>
    <desc>Created with Sketch.</desc>
    <g id="Page-1" stroke="none" stroke-width="1" fill="none" fill-rule="evenodd">
        <g id="登录授权页" transform="translate(-132.000000, -199.000000)">
            <g id="Group-10" transform="translate(124.000000, 199.000000)">
                <polygon id="Polygon-Copy-2" fill="#5495BF" points="64 0 119.425626 32 119.425626 96 64 128 8.57437416 96 8.57437416 32"></polygon>
                <polygon id="Path-5" fill="#80B5D5" points="9.216 32.256 64.5400055 64.512 119.808 32.256 64.6923085 0"></polygon>
                <polygon id="Polygon-Copy-3" fill="#FFFFFF" points="64 32.768 91.9345154 48.64 91.9345154 80.384 64 96.256 36.0654846 80.384 36.0654846 48.64"></polygon>
                <polygon id="Path-2" fill="#C8E0EC" points="64 64.8618577 91.9328989 80.111679 91.9328989 48.6515648 64 32.8"></polygon>
                <polygon id="Path-2-Copy" fill="#A0CDE2" transform="translate(49.966449, 56.455840) scale(-1, 1) translate(-49.966449, -56.455840) " points="36 64.8618577 63.9328989 80.111679 63.9328989 48.6515648 36 32.8"></polygon>
            </g>
        </g>
    </g>
</svg>